<svg xmlns="http://www.w3.org/2000/svg" width="41" height="37" viewBox="0 0 41 37">
  <metadata><?xpacket begin="﻿" id="W5M0MpCehiHzreSzNTczkc9d"?>
<x:xmpmeta xmlns:x="adobe:ns:meta/" x:xmptk="Adobe XMP Core 5.6-c142 79.160924, 2017/07/13-01:06:39        ">
   <rdf:RDF xmlns:rdf="http://www.w3.org/1999/02/22-rdf-syntax-ns#">
      <rdf:Description rdf:about=""/>
   </rdf:RDF>
</x:xmpmeta>

<?xpacket end="w"?></metadata>
<defs>
    <style>
      .cls-1 {
        fill: #3cc3b5;
        fill-rule: evenodd;
      }
    </style>
  </defs>
  <path class="cls-1" d="M1042.9,21.009a2.958,2.958,0,0,0-2.94,2.381h-0.08l-9.65,10.741h4.83l6.67-7.42a3.023,3.023,0,0,0,1.17.263,3.065,3.065,0,0,0,1.17-.263l6.67,7.42h4.83l-9.66-10.741h-0.08a2.939,2.939,0,0,0-2.93-2.381h0Zm-17.49,15.505a2.4,2.4,0,0,0-2.42,2.389V40.1a2.371,2.371,0,0,0,2.23,2.349l3.8,13.158c1.21,2.388,2.42,2.388,3.62,2.388h21.72c1.21,0,2.41,0,3.62-2.388l3.81-13.158a2.37,2.37,0,0,0,2.22-2.349V38.9a2.392,2.392,0,0,0-2.41-2.389h-36.19Zm6.78,5.965h0.6a3.1,3.1,0,0,1,2.94,2.237l1.7,7.422a1.826,1.826,0,0,1-1.92,2.271h-0.61a3.14,3.14,0,0,1-2.94-2.271l-1.69-7.422a1.8,1.8,0,0,1,1.92-2.237h0Zm11.31,0a2.392,2.392,0,0,1,2.41,2.389v7.157a2.41,2.41,0,0,1-4.82,0V44.868a2.4,2.4,0,0,1,2.41-2.389h0Zm10.71,0h0.6a1.8,1.8,0,0,1,1.92,2.237l-1.69,7.422a3.13,3.13,0,0,1-2.94,2.271h-0.61a1.826,1.826,0,0,1-1.92-2.271l1.7-7.422a3.1,3.1,0,0,1,2.94-2.237h0Z" transform="translate(-1023 -21)"/>
</svg>
